<svg xmlns="http://www.w3.org/2000/svg" viewBox="0 0 900 560"><defs><linearGradient id="a" x2="1" y2="1"><stop stop-color="#dff4fc"/><stop offset="1" stop-color="#d8edf0"/></linearGradient></defs><rect width="900" height="560" fill="url(#a)"/><rect x="99" y="70" width="702" height="420" rx="22" fill="#fff"/><rect x="99" y="70" width="145" height="420" rx="22" fill="#153746"/><rect x="223" y="70" width="21" height="420" fill="#153746"/><circle cx="144" cy="110" r="15" fill="#37b7df"/><rect x="125" y="151" width="65" height="8" rx="4" fill="#aaa7c7"/><rect x="125" y="182" width="78" height="8" rx="4" fill="#66647f"/><rect x="125" y="213" width="56" height="8" rx="4" fill="#66647f"/><text x="278" y="126" fill="#183a4b" font-family="Arial" font-size="23" font-weight="700">Laporan Sarana</text><rect x="278" y="148" width="240" height="10" rx="5" fill="#d9dae6"/><rect x="278" y="194" width="147" height="96" rx="12" fill="#f4fbfe"/><rect x="443" y="194" width="147" height="96" rx="12" fill="#f4fbfe"/><rect x="608" y="194" width="147" height="96" rx="12" fill="#f4fbfe"/><circle cx="312" cy="230" r="14" fill="#20a5d8"/><circle cx="477" cy="230" r="14" fill="#5ab6a0"/><circle cx="642" cy="230" r="14" fill="#eca964"/><rect x="298" y="257" width="91" height="8" rx="4" fill="#b9bac9"/><rect x="463" y="257" width="91" height="8" rx="4" fill="#b9bac9"/><rect x="628" y="257" width="91" height="8" rx="4" fill="#b9bac9"/><rect x="278" y="315" width="477" height="133" rx="12" fill="#f7fcff"/><path d="M305 414l58-44 60 19 72-51 62 31 75-64 87 18" fill="none" stroke="#159bd3" stroke-width="6" stroke-linecap="round" stroke-linejoin="round"/><text x="113" y="527" fill="#159bd3" font-family="Arial" font-size="19" font-weight="700" letter-spacing="3">SI-HARBANG</text></svg>
